<mxfile>
    <diagram id="RFZA35b11KN_NPRDRIq1" name="Page-1">
        <mxGraphModel dx="715" dy="1032" grid="1" gridSize="10" guides="1" tooltips="1" connect="1" arrows="1" fold="1" page="1" pageScale="1" pageWidth="827" pageHeight="1169" math="0" shadow="0">
            <root>
                <mxCell id="0"/>
                <mxCell id="1" parent="0"/>
                <mxCell id="209" value="" style="endArrow=classic;html=1;strokeWidth=1;fontFamily=Roboto;fontSource=https%3A%2F%2Ffonts.googleapis.com%2Fcss%3Ffamily%3DRoboto;rounded=0;exitX=0.5;exitY=1;exitDx=0;exitDy=0;exitPerimeter=0;" parent="1" source="204" target="59" edge="1">
                    <mxGeometry width="50" height="50" relative="1" as="geometry">
                        <mxPoint x="610" y="221" as="sourcePoint"/>
                        <mxPoint x="640.16" y="250" as="targetPoint"/>
                        <Array as="points">
                            <mxPoint x="575.16" y="250"/>
                        </Array>
                    </mxGeometry>
                </mxCell>
                <mxCell id="153" value="" style="endArrow=classic;html=1;strokeColor=#000000;exitX=0.5;exitY=1;exitDx=0;exitDy=0;exitPerimeter=0;entryX=0.75;entryY=0;entryDx=0;entryDy=0;rounded=0;fontFamily=Roboto;fontSource=https%3A%2F%2Ffonts.googleapis.com%2Fcss%3Ffamily%3DRoboto;dashed=1;" parent="1" source="128" target="102" edge="1">
                    <mxGeometry width="50" height="50" relative="1" as="geometry">
                        <mxPoint x="486.53999999999996" y="550" as="sourcePoint"/>
                        <mxPoint x="511.53999999999996" y="560" as="targetPoint"/>
                        <Array as="points">
                            <mxPoint x="414" y="490"/>
                            <mxPoint x="330" y="490"/>
                            <mxPoint x="248" y="490"/>
                        </Array>
                    </mxGeometry>
                </mxCell>
                <mxCell id="154" value="Cluser db_vectors" style="edgeLabel;html=1;align=center;verticalAlign=middle;resizable=0;points=[];fontFamily=Roboto;fontSource=https%3A%2F%2Ffonts.googleapis.com%2Fcss%3Ffamily%3DRoboto;" parent="153" vertex="1" connectable="0">
                    <mxGeometry x="0.5146" y="-2" relative="1" as="geometry">
                        <mxPoint x="65" y="-8" as="offset"/>
                    </mxGeometry>
                </mxCell>
                <mxCell id="2" value="&lt;b&gt;Start&lt;/b&gt;" style="strokeWidth=3;html=1;shape=mxgraph.flowchart.start_1;whiteSpace=wrap;fontFamily=Roboto;fontSource=https%3A%2F%2Ffonts.googleapis.com%2Fcss%3Ffamily%3DRoboto;fillColor=#d80073;strokeColor=#A50040;fontColor=#ffffff;" parent="1" vertex="1">
                    <mxGeometry x="170" y="50" width="80" height="40" as="geometry"/>
                </mxCell>
                <mxCell id="7" value="&lt;b&gt;is_trained?&lt;/b&gt;" style="strokeWidth=3;html=1;shape=mxgraph.flowchart.decision;whiteSpace=wrap;fontFamily=Roboto;fontSource=https%3A%2F%2Ffonts.googleapis.com%2Fcss%3Ffamily%3DRoboto;fillColor=#60a917;strokeColor=#2D7600;fontColor=#ffffff;" parent="1" vertex="1">
                    <mxGeometry x="130" y="250" width="160" height="40" as="geometry"/>
                </mxCell>
                <mxCell id="10" value="" style="endArrow=classic;html=1;fontFamily=Roboto;fontSource=https%3A%2F%2Ffonts.googleapis.com%2Fcss%3Ffamily%3DRoboto;exitX=0.5;exitY=1;exitDx=0;exitDy=0;exitPerimeter=0;" parent="1" source="59" target="106" edge="1">
                    <mxGeometry width="50" height="50" relative="1" as="geometry">
                        <mxPoint x="771.04" y="290" as="sourcePoint"/>
                        <mxPoint x="645.84" y="280" as="targetPoint"/>
                    </mxGeometry>
                </mxCell>
                <mxCell id="36" value="True" style="edgeLabel;html=1;align=center;verticalAlign=middle;resizable=0;points=[];fontFamily=Roboto;fontSource=https%3A%2F%2Ffonts.googleapis.com%2Fcss%3Ffamily%3DRoboto;" parent="10" vertex="1" connectable="0">
                    <mxGeometry x="-0.2951" relative="1" as="geometry">
                        <mxPoint as="offset"/>
                    </mxGeometry>
                </mxCell>
                <mxCell id="14" value="" style="endArrow=classic;html=1;exitX=0.5;exitY=1;exitDx=0;exitDy=0;entryX=0.5;entryY=0;entryDx=0;entryDy=0;entryPerimeter=0;fontFamily=Roboto;fontSource=https%3A%2F%2Ffonts.googleapis.com%2Fcss%3Ffamily%3DRoboto;strokeWidth=2;" parent="1" source="97" target="7" edge="1">
                    <mxGeometry width="50" height="50" relative="1" as="geometry">
                        <mxPoint x="226.45999999999998" y="210" as="sourcePoint"/>
                        <mxPoint x="179.95999999999998" y="270" as="targetPoint"/>
                    </mxGeometry>
                </mxCell>
                <mxCell id="25" value="" style="endArrow=classic;html=1;exitX=0.5;exitY=1;exitDx=0;exitDy=0;entryX=0.5;entryY=0;entryDx=0;entryDy=0;fontFamily=Roboto;fontSource=https%3A%2F%2Ffonts.googleapis.com%2Fcss%3Ffamily%3DRoboto;strokeWidth=2;exitPerimeter=0;" parent="1" source="26" target="100" edge="1">
                    <mxGeometry width="50" height="50" relative="1" as="geometry">
                        <mxPoint x="287.205" y="350.01" as="sourcePoint"/>
                        <mxPoint x="33.08" y="370" as="targetPoint"/>
                    </mxGeometry>
                </mxCell>
                <mxCell id="176" value="True" style="edgeLabel;html=1;align=center;verticalAlign=middle;resizable=0;points=[];fontFamily=Roboto;fontSource=https%3A%2F%2Ffonts.googleapis.com%2Fcss%3Ffamily%3DRoboto;" parent="25" vertex="1" connectable="0">
                    <mxGeometry x="-0.44" relative="1" as="geometry">
                        <mxPoint y="-4" as="offset"/>
                    </mxGeometry>
                </mxCell>
                <mxCell id="26" value="&lt;b&gt;is_db_vectors_enough()?&lt;/b&gt;" style="strokeWidth=3;html=1;shape=mxgraph.flowchart.decision;whiteSpace=wrap;spacing=2;fontFamily=Roboto;fontSource=https%3A%2F%2Ffonts.googleapis.com%2Fcss%3Ffamily%3DRoboto;fillColor=#60a917;strokeColor=#2D7600;fontColor=#ffffff;" parent="1" vertex="1">
                    <mxGeometry x="99.28999999999999" y="350" width="221.42" height="40" as="geometry"/>
                </mxCell>
                <mxCell id="41" value="" style="endArrow=classic;html=1;exitX=0.5;exitY=1;exitDx=0;exitDy=0;entryX=0.5;entryY=0;entryDx=0;entryDy=0;fontFamily=Roboto;fontSource=https%3A%2F%2Ffonts.googleapis.com%2Fcss%3Ffamily%3DRoboto;" parent="1" source="100" target="102" edge="1">
                    <mxGeometry width="50" height="50" relative="1" as="geometry">
                        <mxPoint x="286.34" y="500" as="sourcePoint"/>
                        <mxPoint x="268.53000000000003" y="520" as="targetPoint"/>
                    </mxGeometry>
                </mxCell>
                <mxCell id="48" value="&lt;b&gt;Finish&lt;/b&gt;" style="strokeWidth=3;html=1;shape=mxgraph.flowchart.start_1;whiteSpace=wrap;fontFamily=Roboto;fontSource=https%3A%2F%2Ffonts.googleapis.com%2Fcss%3Ffamily%3DRoboto;fillColor=#d80073;strokeColor=#A50040;fontColor=#ffffff;" parent="1" vertex="1">
                    <mxGeometry x="170" y="800" width="80" height="40" as="geometry"/>
                </mxCell>
                <mxCell id="50" value="" style="endArrow=classic;html=1;exitX=0.5;exitY=1;exitDx=0;exitDy=0;entryX=0.5;entryY=0;entryDx=0;entryDy=0;fontFamily=Roboto;fontSource=https%3A%2F%2Ffonts.googleapis.com%2Fcss%3Ffamily%3DRoboto;" parent="1" source="102" target="104" edge="1">
                    <mxGeometry width="50" height="50" relative="1" as="geometry">
                        <mxPoint x="268.53000000000003" y="550" as="sourcePoint"/>
                        <mxPoint x="267.6599999999999" y="575" as="targetPoint"/>
                    </mxGeometry>
                </mxCell>
                <mxCell id="51" value="model_name, model_dir, vectors" style="shape=parallelogram;strokeWidth=3;perimeter=parallelogramPerimeter;whiteSpace=wrap;rounded=1;arcSize=0;size=0.06669927520120948;verticalAlign=middle;fontStyle=1;fontFamily=Roboto;fontSource=https%3A%2F%2Ffonts.googleapis.com%2Fcss%3Ffamily%3DRoboto;fillColor=#f0a30a;strokeColor=#BD7000;fontColor=#ffffff;" parent="1" vertex="1">
                    <mxGeometry x="110" y="120" width="200" height="30" as="geometry"/>
                </mxCell>
                <mxCell id="59" value="&lt;b&gt;is_model_files_exist()&lt;/b&gt;?" style="strokeWidth=1;html=1;shape=mxgraph.flowchart.decision;whiteSpace=wrap;fontFamily=Roboto;fontSource=https%3A%2F%2Ffonts.googleapis.com%2Fcss%3Ffamily%3DRoboto;fillColor=#d5e8d4;strokeColor=#82b366;" parent="1" vertex="1">
                    <mxGeometry x="641.04" y="230" width="200" height="40" as="geometry"/>
                </mxCell>
                <mxCell id="60" value="" style="endArrow=classic;html=1;exitX=0;exitY=0.5;exitDx=0;exitDy=0;exitPerimeter=0;rounded=0;fontFamily=Roboto;fontSource=https%3A%2F%2Ffonts.googleapis.com%2Fcss%3Ffamily%3DRoboto;strokeWidth=2;entryX=0;entryY=0.5;entryDx=0;entryDy=0;" parent="1" source="7" target="94" edge="1">
                    <mxGeometry width="50" height="50" relative="1" as="geometry">
                        <mxPoint x="-37.34" y="725" as="sourcePoint"/>
                        <mxPoint x="50" y="730" as="targetPoint"/>
                        <Array as="points">
                            <mxPoint x="50" y="270"/>
                            <mxPoint x="50" y="690"/>
                        </Array>
                    </mxGeometry>
                </mxCell>
                <mxCell id="64" value="True" style="edgeLabel;html=1;align=center;verticalAlign=middle;resizable=0;points=[];fontFamily=Roboto;fontSource=https%3A%2F%2Ffonts.googleapis.com%2Fcss%3Ffamily%3DRoboto;" parent="60" vertex="1" connectable="0">
                    <mxGeometry x="-0.773" y="1" relative="1" as="geometry">
                        <mxPoint x="45" y="-0.9999999999999964" as="offset"/>
                    </mxGeometry>
                </mxCell>
                <mxCell id="61" value="" style="endArrow=classic;html=1;exitX=1;exitY=0.5;exitDx=0;exitDy=0;fontFamily=Roboto;fontSource=https%3A%2F%2Ffonts.googleapis.com%2Fcss%3Ffamily%3DRoboto;entryX=0;entryY=0.5;entryDx=0;entryDy=0;entryPerimeter=0;" parent="1" source="97" target="204" edge="1">
                    <mxGeometry width="50" height="50" relative="1" as="geometry">
                        <mxPoint x="356.46" y="190" as="sourcePoint"/>
                        <mxPoint x="470" y="210" as="targetPoint"/>
                    </mxGeometry>
                </mxCell>
                <mxCell id="146" value="Create model" style="edgeLabel;html=1;align=center;verticalAlign=middle;resizable=0;points=[];fontFamily=Roboto;fontSource=https%3A%2F%2Ffonts.googleapis.com%2Fcss%3Ffamily%3DRoboto;" parent="61" vertex="1" connectable="0">
                    <mxGeometry x="-0.1801" y="-3" relative="1" as="geometry">
                        <mxPoint x="11.31" y="-13" as="offset"/>
                    </mxGeometry>
                </mxCell>
                <mxCell id="66" value="" style="endArrow=classic;html=1;entryX=0.5;entryY=1;entryDx=0;entryDy=0;fontFamily=Roboto;fontSource=https%3A%2F%2Ffonts.googleapis.com%2Fcss%3Ffamily%3DRoboto;exitX=0.5;exitY=0;exitDx=0;exitDy=0;exitPerimeter=0;" parent="1" source="204" target="108" edge="1">
                    <mxGeometry width="50" height="50" relative="1" as="geometry">
                        <mxPoint x="610" y="170" as="sourcePoint"/>
                        <mxPoint x="656.09" y="120" as="targetPoint"/>
                    </mxGeometry>
                </mxCell>
                <mxCell id="68" value="False" style="edgeLabel;html=1;align=center;verticalAlign=middle;resizable=0;points=[];fontFamily=Roboto;fontSource=https%3A%2F%2Ffonts.googleapis.com%2Fcss%3Ffamily%3DRoboto;" parent="66" vertex="1" connectable="0">
                    <mxGeometry x="-0.48" relative="1" as="geometry">
                        <mxPoint x="1" as="offset"/>
                    </mxGeometry>
                </mxCell>
                <mxCell id="76" value="" style="endArrow=classic;html=1;exitX=0.5;exitY=1;exitDx=0;exitDy=0;entryX=0.5;entryY=0;entryDx=0;entryDy=0;entryPerimeter=0;fontFamily=Roboto;fontSource=https%3A%2F%2Ffonts.googleapis.com%2Fcss%3Ffamily%3DRoboto;strokeWidth=2;" parent="1" source="156" target="48" edge="1">
                    <mxGeometry width="50" height="50" relative="1" as="geometry">
                        <mxPoint x="95" y="800" as="sourcePoint"/>
                        <mxPoint x="356.46" y="410" as="targetPoint"/>
                    </mxGeometry>
                </mxCell>
                <mxCell id="94" value="&lt;b&gt;cluster_ids =&lt;/b&gt;&lt;br&gt;&lt;b&gt;cluster(vectors)&lt;/b&gt;" style="verticalLabelPosition=middle;verticalAlign=middle;html=1;shape=trapezoid;perimeter=trapezoidPerimeter;whiteSpace=wrap;size=0.03554839321262679;arcSize=10;flipV=1;strokeWidth=3;labelPosition=center;align=center;spacingTop=0;spacingLeft=0;spacingRight=0;horizontal=1;rounded=0;sketch=0;shadow=0;fontFamily=Roboto;fontSource=https%3A%2F%2Ffonts.googleapis.com%2Fcss%3Ffamily%3DRoboto;fillColor=#1ba1e2;strokeColor=#006EAF;fontColor=#ffffff;" parent="1" vertex="1">
                    <mxGeometry x="130" y="670" width="160" height="40" as="geometry"/>
                </mxCell>
                <mxCell id="97" value="Create&lt;br&gt;&lt;b&gt;FaissKmeans(model_name, model_dir)&lt;/b&gt;" style="verticalLabelPosition=middle;verticalAlign=middle;html=1;shape=trapezoid;perimeter=trapezoidPerimeter;whiteSpace=wrap;size=0.032482758620689514;arcSize=10;flipV=1;strokeWidth=3;labelPosition=center;align=center;spacingTop=0;spacingLeft=0;spacingRight=0;horizontal=1;rounded=0;sketch=0;shadow=0;fontFamily=Roboto;fontSource=https%3A%2F%2Ffonts.googleapis.com%2Fcss%3Ffamily%3DRoboto;fillColor=#1ba1e2;strokeColor=#006EAF;fontColor=#ffffff;" parent="1" vertex="1">
                    <mxGeometry x="68.72000000000001" y="180" width="282.56" height="40" as="geometry"/>
                </mxCell>
                <mxCell id="100" value="&lt;b&gt;train_auto_k()&lt;/b&gt;" style="verticalLabelPosition=middle;verticalAlign=middle;html=1;shape=trapezoid;perimeter=trapezoidPerimeter;whiteSpace=wrap;size=0.08705769230769315;arcSize=10;flipV=1;strokeWidth=3;labelPosition=center;align=center;spacingTop=0;spacingLeft=0;spacingRight=0;horizontal=1;rounded=0;sketch=0;shadow=0;fontFamily=Roboto;fontSource=https%3A%2F%2Ffonts.googleapis.com%2Fcss%3Ffamily%3DRoboto;fillColor=#1ba1e2;strokeColor=#006EAF;fontColor=#ffffff;" parent="1" vertex="1">
                    <mxGeometry x="153.09" y="450" width="113.82" height="30" as="geometry"/>
                </mxCell>
                <mxCell id="101" value="" style="endArrow=classic;html=1;entryX=1;entryY=0.5;entryDx=0;entryDy=0;entryPerimeter=0;startArrow=none;startFill=0;endFill=1;rounded=0;fontFamily=Roboto;fontSource=https%3A%2F%2Ffonts.googleapis.com%2Fcss%3Ffamily%3DRoboto;dashed=1;exitX=0.25;exitY=1;exitDx=0;exitDy=0;" parent="1" source="185" target="128" edge="1">
                    <mxGeometry width="50" height="50" relative="1" as="geometry">
                        <mxPoint x="570" y="380" as="sourcePoint"/>
                        <mxPoint x="520" y="450" as="targetPoint"/>
                        <Array as="points">
                            <mxPoint x="543" y="420"/>
                        </Array>
                    </mxGeometry>
                </mxCell>
                <mxCell id="149" value="Load db_vectors&lt;br&gt;to memory" style="edgeLabel;html=1;align=center;verticalAlign=middle;resizable=0;points=[];fontFamily=Roboto;fontSource=https%3A%2F%2Ffonts.googleapis.com%2Fcss%3Ffamily%3DRoboto;rotation=0;" parent="101" vertex="1" connectable="0">
                    <mxGeometry x="-0.4757" relative="1" as="geometry">
                        <mxPoint x="1.0299999999999916" y="-12.999999999999996" as="offset"/>
                    </mxGeometry>
                </mxCell>
                <mxCell id="102" value="&lt;b&gt;_cluster_db_vectors()&lt;/b&gt;" style="rounded=1;whiteSpace=wrap;html=1;absoluteArcSize=1;arcSize=0;strokeWidth=1;shadow=0;sketch=0;fontFamily=Roboto;fontSource=https%3A%2F%2Ffonts.googleapis.com%2Fcss%3Ffamily%3DRoboto;fillColor=#dae8fc;strokeColor=#6c8ebf;" parent="1" vertex="1">
                    <mxGeometry x="133.41000000000003" y="510" width="153.18" height="30" as="geometry"/>
                </mxCell>
                <mxCell id="104" value="&lt;b&gt;save()&lt;/b&gt;&amp;nbsp;model files" style="rounded=1;whiteSpace=wrap;html=1;absoluteArcSize=1;arcSize=0;strokeWidth=1;shadow=0;sketch=0;fontFamily=Roboto;fontSource=https%3A%2F%2Ffonts.googleapis.com%2Fcss%3Ffamily%3DRoboto;fillColor=#dae8fc;strokeColor=#6c8ebf;" parent="1" vertex="1">
                    <mxGeometry x="149.35999999999999" y="590" width="121.28" height="30" as="geometry"/>
                </mxCell>
                <mxCell id="105" value="" style="endArrow=classic;html=1;rounded=0;fontFamily=Roboto;fontSource=https%3A%2F%2Ffonts.googleapis.com%2Fcss%3Ffamily%3DRoboto;exitX=1;exitY=0.5;exitDx=0;exitDy=0;entryX=0;entryY=0.5;entryDx=0;entryDy=0;entryPerimeter=0;" parent="1" source="104" target="127" edge="1">
                    <mxGeometry width="50" height="50" relative="1" as="geometry">
                        <mxPoint x="280" y="630" as="sourcePoint"/>
                        <mxPoint x="530" y="590" as="targetPoint"/>
                    </mxGeometry>
                </mxCell>
                <mxCell id="139" value="Save model to files" style="edgeLabel;html=1;align=center;verticalAlign=middle;resizable=0;points=[];fontFamily=Roboto;fontSource=https%3A%2F%2Ffonts.googleapis.com%2Fcss%3Ffamily%3DRoboto;" parent="105" vertex="1" connectable="0">
                    <mxGeometry x="-0.0992" y="-1" relative="1" as="geometry">
                        <mxPoint x="-56.64000000000003" y="7.63000000000001" as="offset"/>
                    </mxGeometry>
                </mxCell>
                <mxCell id="106" value="&lt;b&gt;load()&lt;/b&gt;&amp;nbsp;model files" style="rounded=1;whiteSpace=wrap;html=1;absoluteArcSize=1;arcSize=0;strokeWidth=1;shadow=0;sketch=0;fontFamily=Roboto;fontSource=https%3A%2F%2Ffonts.googleapis.com%2Fcss%3Ffamily%3DRoboto;fillColor=#dae8fc;strokeColor=#6c8ebf;" parent="1" vertex="1">
                    <mxGeometry x="680.16" y="310" width="120" height="30" as="geometry"/>
                </mxCell>
                <mxCell id="107" value="" style="endArrow=classic;html=1;exitX=0.93;exitY=0.5;exitDx=0;exitDy=0;exitPerimeter=0;rounded=0;fontFamily=Roboto;fontSource=https%3A%2F%2Ffonts.googleapis.com%2Fcss%3Ffamily%3DRoboto;entryX=0.75;entryY=1;entryDx=0;entryDy=0;" parent="1" source="127" target="106" edge="1">
                    <mxGeometry width="50" height="50" relative="1" as="geometry">
                        <mxPoint x="775.285" y="635" as="sourcePoint"/>
                        <mxPoint x="610.16" y="290" as="targetPoint"/>
                        <Array as="points">
                            <mxPoint x="770" y="605"/>
                        </Array>
                    </mxGeometry>
                </mxCell>
                <mxCell id="138" value="Read model from files" style="edgeLabel;html=1;align=center;verticalAlign=middle;resizable=0;points=[];horizontal=0;fontFamily=Roboto;fontSource=https%3A%2F%2Ffonts.googleapis.com%2Fcss%3Ffamily%3DRoboto;" parent="107" vertex="1" connectable="0">
                    <mxGeometry x="-0.17" y="-2" relative="1" as="geometry">
                        <mxPoint x="-12.139999999999999" y="-52.959999999999994" as="offset"/>
                    </mxGeometry>
                </mxCell>
                <mxCell id="108" value="Create new&lt;br&gt;&lt;b&gt;FaissKmeansBase()&lt;/b&gt;&amp;nbsp;model" style="rounded=1;whiteSpace=wrap;html=1;absoluteArcSize=1;arcSize=0;strokeWidth=1;shadow=0;sketch=0;fontFamily=Roboto;fontSource=https%3A%2F%2Ffonts.googleapis.com%2Fcss%3Ffamily%3DRoboto;fillColor=#dae8fc;strokeColor=#6c8ebf;" parent="1" vertex="1">
                    <mxGeometry x="496.72" y="100" width="156.87" height="40" as="geometry"/>
                </mxCell>
                <mxCell id="112" value="" style="endArrow=classic;html=1;exitX=0.5;exitY=1;exitDx=0;exitDy=0;fontFamily=Roboto;fontSource=https%3A%2F%2Ffonts.googleapis.com%2Fcss%3Ffamily%3DRoboto;entryX=0.5;entryY=0;entryDx=0;entryDy=0;strokeWidth=2;" parent="1" source="51" target="97" edge="1">
                    <mxGeometry width="50" height="50" relative="1" as="geometry">
                        <mxPoint x="280" y="420" as="sourcePoint"/>
                        <mxPoint x="203.14" y="110" as="targetPoint"/>
                    </mxGeometry>
                </mxCell>
                <mxCell id="113" value="" style="endArrow=classic;html=1;exitX=0.5;exitY=1;exitDx=0;exitDy=0;exitPerimeter=0;fontFamily=Roboto;fontSource=https%3A%2F%2Ffonts.googleapis.com%2Fcss%3Ffamily%3DRoboto;strokeWidth=2;" parent="1" source="2" target="51" edge="1">
                    <mxGeometry width="50" height="50" relative="1" as="geometry">
                        <mxPoint x="280" y="420" as="sourcePoint"/>
                        <mxPoint x="330" y="370" as="targetPoint"/>
                    </mxGeometry>
                </mxCell>
                <mxCell id="114" value="&lt;b&gt;Kmeans&lt;br&gt;index model&amp;nbsp; &amp;nbsp;&lt;/b&gt;" style="strokeWidth=1;html=1;shape=mxgraph.flowchart.direct_data;whiteSpace=wrap;rounded=0;shadow=0;sketch=0;dashed=1;fontFamily=Roboto;fontSource=https%3A%2F%2Ffonts.googleapis.com%2Fcss%3Ffamily%3DRoboto;fillColor=#fff2cc;strokeColor=#d6b656;" parent="1" vertex="1">
                    <mxGeometry x="410" y="540" width="104.84" height="40" as="geometry"/>
                </mxCell>
                <mxCell id="117" value="" style="endArrow=classic;html=1;startArrow=none;startFill=0;endFill=1;fontFamily=Roboto;fontSource=https%3A%2F%2Ffonts.googleapis.com%2Fcss%3Ffamily%3DRoboto;dashed=1;rounded=0;exitX=0.25;exitY=1;exitDx=0;exitDy=0;entryX=1;entryY=0.5;entryDx=0;entryDy=0;entryPerimeter=0;" parent="1" source="106" target="114" edge="1">
                    <mxGeometry width="50" height="50" relative="1" as="geometry">
                        <mxPoint x="560.16" y="490" as="sourcePoint"/>
                        <mxPoint x="520" y="560" as="targetPoint"/>
                        <Array as="points">
                            <mxPoint x="710.16" y="560"/>
                        </Array>
                    </mxGeometry>
                </mxCell>
                <mxCell id="147" value="Load model to memory" style="edgeLabel;html=1;align=center;verticalAlign=middle;resizable=0;points=[];horizontal=0;fontFamily=Roboto;fontSource=https%3A%2F%2Ffonts.googleapis.com%2Fcss%3Ffamily%3DRoboto;" parent="117" vertex="1" connectable="0">
                    <mxGeometry x="-0.1319" y="3" relative="1" as="geometry">
                        <mxPoint x="-13.2" y="-75.99000000000001" as="offset"/>
                    </mxGeometry>
                </mxCell>
                <mxCell id="120" value="" style="endArrow=none;startArrow=classic;html=1;entryX=0.5;entryY=1;entryDx=0;entryDy=0;entryPerimeter=0;endFill=0;exitX=1;exitY=0.5;exitDx=0;exitDy=0;rounded=0;fontFamily=Roboto;fontSource=https%3A%2F%2Ffonts.googleapis.com%2Fcss%3Ffamily%3DRoboto;dashed=1;" parent="1" source="94" target="114" edge="1">
                    <mxGeometry width="50" height="50" relative="1" as="geometry">
                        <mxPoint x="190" y="680" as="sourcePoint"/>
                        <mxPoint x="390" y="360" as="targetPoint"/>
                        <Array as="points">
                            <mxPoint x="462" y="690"/>
                        </Array>
                    </mxGeometry>
                </mxCell>
                <mxCell id="132" value="Use model to cluster vectors" style="edgeLabel;html=1;align=center;verticalAlign=middle;resizable=0;points=[];fontFamily=Roboto;fontSource=https%3A%2F%2Ffonts.googleapis.com%2Fcss%3Ffamily%3DRoboto;" parent="120" vertex="1" connectable="0">
                    <mxGeometry x="-0.0617" y="-3" relative="1" as="geometry">
                        <mxPoint x="-45.160000000000004" y="-13" as="offset"/>
                    </mxGeometry>
                </mxCell>
                <mxCell id="122" value="" style="endArrow=none;html=1;entryX=0;entryY=0.5;entryDx=0;entryDy=0;entryPerimeter=0;startArrow=classic;startFill=1;endFill=0;fontFamily=Roboto;fontSource=https%3A%2F%2Ffonts.googleapis.com%2Fcss%3Ffamily%3DRoboto;dashed=1;rounded=0;exitX=0.75;exitY=0;exitDx=0;exitDy=0;" parent="1" source="104" target="114" edge="1">
                    <mxGeometry width="50" height="50" relative="1" as="geometry">
                        <mxPoint x="300" y="560" as="sourcePoint"/>
                        <mxPoint x="386.54" y="570" as="targetPoint"/>
                        <Array as="points">
                            <mxPoint x="240" y="560"/>
                        </Array>
                    </mxGeometry>
                </mxCell>
                <mxCell id="143" value="Read from memory" style="edgeLabel;html=1;align=center;verticalAlign=middle;resizable=0;points=[];fontFamily=Roboto;fontSource=https%3A%2F%2Ffonts.googleapis.com%2Fcss%3Ffamily%3DRoboto;" parent="122" vertex="1" connectable="0">
                    <mxGeometry x="0.1926" y="-2" relative="1" as="geometry">
                        <mxPoint x="-9" y="8" as="offset"/>
                    </mxGeometry>
                </mxCell>
                <mxCell id="123" value="" style="endArrow=none;html=1;entryX=0;entryY=0.5;entryDx=0;entryDy=0;entryPerimeter=0;exitX=0.75;exitY=0;exitDx=0;exitDy=0;endFill=0;startArrow=classic;startFill=1;rounded=0;fontFamily=Roboto;fontSource=https%3A%2F%2Ffonts.googleapis.com%2Fcss%3Ffamily%3DRoboto;dashed=1;" parent="1" source="100" target="128" edge="1">
                    <mxGeometry width="50" height="50" relative="1" as="geometry">
                        <mxPoint x="336.54" y="620" as="sourcePoint"/>
                        <mxPoint x="515.29" y="406.25" as="targetPoint"/>
                        <Array as="points">
                            <mxPoint x="238" y="420"/>
                        </Array>
                    </mxGeometry>
                </mxCell>
                <mxCell id="151" value="Use db_vectors to train" style="edgeLabel;html=1;align=center;verticalAlign=middle;resizable=0;points=[];fontFamily=Roboto;fontSource=https%3A%2F%2Ffonts.googleapis.com%2Fcss%3Ffamily%3DRoboto;" parent="123" vertex="1" connectable="0">
                    <mxGeometry x="-0.3978" y="-2" relative="1" as="geometry">
                        <mxPoint x="45" y="-12" as="offset"/>
                    </mxGeometry>
                </mxCell>
                <mxCell id="127" value="&lt;b&gt;Model files&lt;/b&gt;" style="strokeWidth=1;html=1;shape=mxgraph.flowchart.stored_data;whiteSpace=wrap;rounded=0;shadow=0;sketch=0;fontFamily=Roboto;fontSource=https%3A%2F%2Ffonts.googleapis.com%2Fcss%3Ffamily%3DRoboto;fillColor=#ffe6cc;strokeColor=#d79b00;" parent="1" vertex="1">
                    <mxGeometry x="560.16" y="585" width="90" height="40" as="geometry"/>
                </mxCell>
                <mxCell id="128" value="&lt;b&gt;db_vectors&amp;nbsp; &amp;nbsp;&lt;/b&gt;" style="strokeWidth=1;html=1;shape=mxgraph.flowchart.direct_data;whiteSpace=wrap;rounded=0;shadow=0;sketch=0;dashed=1;fontFamily=Roboto;fontSource=https%3A%2F%2Ffonts.googleapis.com%2Fcss%3Ffamily%3DRoboto;fillColor=#fff2cc;strokeColor=#d6b656;" parent="1" vertex="1">
                    <mxGeometry x="369" y="400" width="90" height="40" as="geometry"/>
                </mxCell>
                <mxCell id="118" value="" style="endArrow=classic;html=1;entryX=0.5;entryY=0;entryDx=0;entryDy=0;entryPerimeter=0;exitX=1;exitY=0.5;exitDx=0;exitDy=0;rounded=0;fontFamily=Roboto;fontSource=https%3A%2F%2Ffonts.googleapis.com%2Fcss%3Ffamily%3DRoboto;dashed=1;" parent="1" source="100" target="114" edge="1">
                    <mxGeometry width="50" height="50" relative="1" as="geometry">
                        <mxPoint x="406.53999999999996" y="410" as="sourcePoint"/>
                        <mxPoint x="456.53999999999996" y="360" as="targetPoint"/>
                        <Array as="points">
                            <mxPoint x="462" y="465"/>
                        </Array>
                    </mxGeometry>
                </mxCell>
                <mxCell id="148" value="Save model to memory" style="edgeLabel;html=1;align=center;verticalAlign=middle;resizable=0;points=[];fontFamily=Roboto;fontSource=https%3A%2F%2Ffonts.googleapis.com%2Fcss%3Ffamily%3DRoboto;" parent="118" vertex="1" connectable="0">
                    <mxGeometry x="-0.5477" y="3" relative="1" as="geometry">
                        <mxPoint x="4.039999999999999" y="-12" as="offset"/>
                    </mxGeometry>
                </mxCell>
                <mxCell id="156" value="&lt;b&gt;cluster_ids&lt;/b&gt;" style="shape=parallelogram;html=1;strokeWidth=2;perimeter=parallelogramPerimeter;whiteSpace=wrap;rounded=1;arcSize=0;size=0.09375;fillColor=#f0a30a;strokeColor=#BD7000;fontColor=#ffffff;fontFamily=Roboto;fontSource=https%3A%2F%2Ffonts.googleapis.com%2Fcss%3Ffamily%3DRoboto;" parent="1" vertex="1">
                    <mxGeometry x="160" y="740" width="100" height="30" as="geometry"/>
                </mxCell>
                <mxCell id="165" value="" style="endArrow=classic;html=1;strokeWidth=2;rounded=0;exitX=0;exitY=0.5;exitDx=0;exitDy=0;entryX=0.5;entryY=0;entryDx=0;entryDy=0;fontFamily=Roboto;fontSource=https%3A%2F%2Ffonts.googleapis.com%2Fcss%3Ffamily%3DRoboto;" parent="1" source="100" target="94" edge="1">
                    <mxGeometry width="50" height="50" relative="1" as="geometry">
                        <mxPoint x="170" y="510" as="sourcePoint"/>
                        <mxPoint x="84" y="650" as="targetPoint"/>
                        <Array as="points">
                            <mxPoint x="90" y="465"/>
                            <mxPoint x="90" y="640"/>
                            <mxPoint x="210" y="640"/>
                        </Array>
                    </mxGeometry>
                </mxCell>
                <mxCell id="170" value="" style="endArrow=classic;html=1;strokeWidth=2;exitX=1;exitY=0.5;exitDx=0;exitDy=0;exitPerimeter=0;rounded=0;entryX=0.5;entryY=1;entryDx=0;entryDy=0;fontFamily=Roboto;fontSource=https%3A%2F%2Ffonts.googleapis.com%2Fcss%3Ffamily%3DRoboto;" parent="1" source="26" target="98" edge="1">
                    <mxGeometry width="50" height="50" relative="1" as="geometry">
                        <mxPoint x="170" y="460" as="sourcePoint"/>
                        <mxPoint x="390" y="360" as="targetPoint"/>
                        <Array as="points">
                            <mxPoint x="382" y="370"/>
                        </Array>
                    </mxGeometry>
                </mxCell>
                <mxCell id="178" value="False" style="edgeLabel;html=1;align=center;verticalAlign=middle;resizable=0;points=[];fontFamily=Roboto;fontSource=https%3A%2F%2Ffonts.googleapis.com%2Fcss%3Ffamily%3DRoboto;" parent="170" vertex="1" connectable="0">
                    <mxGeometry x="-0.6765" y="-3" relative="1" as="geometry">
                        <mxPoint x="7.56" y="-3" as="offset"/>
                    </mxGeometry>
                </mxCell>
                <mxCell id="98" value="&lt;b&gt;add_vectors(vectors)&lt;/b&gt;" style="verticalLabelPosition=middle;verticalAlign=middle;html=1;shape=trapezoid;perimeter=trapezoidPerimeter;whiteSpace=wrap;size=0.04380802387267878;arcSize=10;flipV=1;strokeWidth=3;labelPosition=center;align=center;spacingTop=0;spacingLeft=0;spacingRight=0;horizontal=1;rounded=0;sketch=0;shadow=0;fontFamily=Roboto;fontSource=https%3A%2F%2Ffonts.googleapis.com%2Fcss%3Ffamily%3DRoboto;fillColor=#1ba1e2;strokeColor=#006EAF;fontColor=#ffffff;" parent="1" vertex="1">
                    <mxGeometry x="307.40999999999997" y="310" width="150" height="30" as="geometry"/>
                </mxCell>
                <mxCell id="174" value="" style="endArrow=classic;html=1;strokeWidth=2;exitX=0.5;exitY=1;exitDx=0;exitDy=0;exitPerimeter=0;entryX=0.5;entryY=0;entryDx=0;entryDy=0;entryPerimeter=0;fontFamily=Roboto;fontSource=https%3A%2F%2Ffonts.googleapis.com%2Fcss%3Ffamily%3DRoboto;" parent="1" source="7" target="26" edge="1">
                    <mxGeometry width="50" height="50" relative="1" as="geometry">
                        <mxPoint x="240" y="480" as="sourcePoint"/>
                        <mxPoint x="290" y="430" as="targetPoint"/>
                    </mxGeometry>
                </mxCell>
                <mxCell id="179" value="False" style="edgeLabel;html=1;align=center;verticalAlign=middle;resizable=0;points=[];fontFamily=Roboto;fontSource=https%3A%2F%2Ffonts.googleapis.com%2Fcss%3Ffamily%3DRoboto;" parent="174" vertex="1" connectable="0">
                    <mxGeometry x="-0.5333" y="2" relative="1" as="geometry">
                        <mxPoint x="-2" y="-4" as="offset"/>
                    </mxGeometry>
                </mxCell>
                <mxCell id="182" value="" style="endArrow=classic;html=1;strokeWidth=2;exitX=0.5;exitY=1;exitDx=0;exitDy=0;entryX=0.5;entryY=0;entryDx=0;entryDy=0;fontFamily=Roboto;fontSource=https%3A%2F%2Ffonts.googleapis.com%2Fcss%3Ffamily%3DRoboto;" parent="1" source="94" target="156" edge="1">
                    <mxGeometry width="50" height="50" relative="1" as="geometry">
                        <mxPoint x="300" y="480" as="sourcePoint"/>
                        <mxPoint x="350" y="430" as="targetPoint"/>
                    </mxGeometry>
                </mxCell>
                <mxCell id="183" value="" style="endArrow=classic;html=1;strokeWidth=1;entryX=0.75;entryY=1;entryDx=0;entryDy=0;dashed=1;rounded=0;startArrow=classic;startFill=1;exitX=0.5;exitY=0;exitDx=0;exitDy=0;exitPerimeter=0;fontFamily=Roboto;fontSource=https%3A%2F%2Ffonts.googleapis.com%2Fcss%3Ffamily%3DRoboto;" parent="1" source="128" target="98" edge="1">
                    <mxGeometry width="50" height="50" relative="1" as="geometry">
                        <mxPoint x="407" y="390" as="sourcePoint"/>
                        <mxPoint x="490" y="370" as="targetPoint"/>
                        <Array as="points">
                            <mxPoint x="414" y="350"/>
                        </Array>
                    </mxGeometry>
                </mxCell>
                <mxCell id="203" value="Add to&lt;br&gt;db_vectors" style="edgeLabel;html=1;align=center;verticalAlign=middle;resizable=0;points=[];fontFamily=Roboto;rotation=0;" parent="183" vertex="1" connectable="0">
                    <mxGeometry x="0.0342" y="-2" relative="1" as="geometry">
                        <mxPoint x="24" y="-8" as="offset"/>
                    </mxGeometry>
                </mxCell>
                <mxCell id="184" value="" style="endArrow=classic;html=1;strokeWidth=2;exitX=0;exitY=0.5;exitDx=0;exitDy=0;entryX=0.5;entryY=0;entryDx=0;entryDy=0;entryPerimeter=0;rounded=0;fontFamily=Roboto;fontSource=https%3A%2F%2Ffonts.googleapis.com%2Fcss%3Ffamily%3DRoboto;" parent="1" source="98" target="26" edge="1">
                    <mxGeometry width="50" height="50" relative="1" as="geometry">
                        <mxPoint x="440" y="420" as="sourcePoint"/>
                        <mxPoint x="210" y="315" as="targetPoint"/>
                        <Array as="points">
                            <mxPoint x="210" y="325"/>
                        </Array>
                    </mxGeometry>
                </mxCell>
                <mxCell id="185" value="&lt;b&gt;_load_db_vectors()&lt;br&gt;&lt;/b&gt;db_vector file" style="rounded=1;whiteSpace=wrap;html=1;absoluteArcSize=1;arcSize=0;strokeWidth=1;shadow=0;sketch=0;fontFamily=Roboto;fontSource=https%3A%2F%2Ffonts.googleapis.com%2Fcss%3Ffamily%3DRoboto;fillColor=#dae8fc;strokeColor=#6c8ebf;" parent="1" vertex="1">
                    <mxGeometry x="510.16" y="300" width="130" height="40" as="geometry"/>
                </mxCell>
                <mxCell id="187" value="" style="endArrow=classic;html=1;strokeWidth=1;exitX=0.5;exitY=0;exitDx=0;exitDy=0;exitPerimeter=0;rounded=0;fontFamily=Roboto;fontSource=https%3A%2F%2Ffonts.googleapis.com%2Fcss%3Ffamily%3DRoboto;entryX=0.75;entryY=1;entryDx=0;entryDy=0;" parent="1" source="127" target="185" edge="1">
                    <mxGeometry width="50" height="50" relative="1" as="geometry">
                        <mxPoint x="470.16" y="420" as="sourcePoint"/>
                        <mxPoint x="630.16" y="340" as="targetPoint"/>
                        <Array as="points">
                            <mxPoint x="608.16" y="570"/>
                        </Array>
                    </mxGeometry>
                </mxCell>
                <mxCell id="201" value="Load db_vectors from file" style="edgeLabel;html=1;align=center;verticalAlign=middle;resizable=0;points=[];rotation=270;fontFamily=Roboto;fontSource=https%3A%2F%2Ffonts.googleapis.com%2Fcss%3Ffamily%3DRoboto;" parent="187" vertex="1" connectable="0">
                    <mxGeometry x="-0.0679" relative="1" as="geometry">
                        <mxPoint x="-13.840000000000002" y="14.99" as="offset"/>
                    </mxGeometry>
                </mxCell>
                <mxCell id="190" value="&lt;b&gt;_save_db_vectors()&lt;br&gt;&lt;/b&gt;files" style="rounded=1;whiteSpace=wrap;html=1;absoluteArcSize=1;arcSize=0;strokeWidth=1;shadow=0;sketch=0;fontFamily=Roboto;fontSource=https%3A%2F%2Ffonts.googleapis.com%2Fcss%3Ffamily%3DRoboto;fillColor=#dae8fc;strokeColor=#6c8ebf;" parent="1" vertex="1">
                    <mxGeometry x="320.71" y="250" width="123.41" height="40" as="geometry"/>
                </mxCell>
                <mxCell id="191" value="" style="endArrow=classic;html=1;strokeWidth=1;fontFamily=Roboto;fontSource=https%3A%2F%2Ffonts.googleapis.com%2Fcss%3Ffamily%3DRoboto;entryX=0.5;entryY=1;entryDx=0;entryDy=0;exitX=0.5;exitY=0;exitDx=0;exitDy=0;" parent="1" source="98" target="190" edge="1">
                    <mxGeometry width="50" height="50" relative="1" as="geometry">
                        <mxPoint x="440" y="410" as="sourcePoint"/>
                        <mxPoint x="399" y="600" as="targetPoint"/>
                    </mxGeometry>
                </mxCell>
                <mxCell id="193" value="" style="endArrow=classic;html=1;strokeWidth=1;exitX=1;exitY=0.5;exitDx=0;exitDy=0;entryX=0.995;entryY=0.01;entryDx=0;entryDy=0;entryPerimeter=0;rounded=0;fontFamily=Roboto;fontSource=https%3A%2F%2Ffonts.googleapis.com%2Fcss%3Ffamily%3DRoboto;" parent="1" source="190" target="127" edge="1">
                    <mxGeometry width="50" height="50" relative="1" as="geometry">
                        <mxPoint x="540" y="410" as="sourcePoint"/>
                        <mxPoint x="590" y="360" as="targetPoint"/>
                        <Array as="points">
                            <mxPoint x="650" y="270"/>
                        </Array>
                    </mxGeometry>
                </mxCell>
                <mxCell id="200" value="Write db_vectors&lt;br&gt;to file" style="edgeLabel;html=1;align=center;verticalAlign=middle;resizable=0;points=[];fontFamily=Roboto;fontSource=https%3A%2F%2Ffonts.googleapis.com%2Fcss%3Ffamily%3DRoboto;rotation=0;" parent="193" vertex="1" connectable="0">
                    <mxGeometry x="0.0759" y="-4" relative="1" as="geometry">
                        <mxPoint x="-135.79" y="-99.11999999999999" as="offset"/>
                    </mxGeometry>
                </mxCell>
                <mxCell id="198" value="" style="endArrow=classic;html=1;strokeWidth=1;exitX=0.08;exitY=0;exitDx=0;exitDy=0;exitPerimeter=0;dashed=1;rounded=0;entryX=1;entryY=0.5;entryDx=0;entryDy=0;fontFamily=Roboto;fontSource=https%3A%2F%2Ffonts.googleapis.com%2Fcss%3Ffamily%3DRoboto;" parent="1" source="114" target="102" edge="1">
                    <mxGeometry width="50" height="50" relative="1" as="geometry">
                        <mxPoint x="470" y="410" as="sourcePoint"/>
                        <mxPoint x="290" y="530" as="targetPoint"/>
                        <Array as="points">
                            <mxPoint x="418" y="525"/>
                        </Array>
                    </mxGeometry>
                </mxCell>
                <mxCell id="202" value="Use model to&lt;br&gt;cluser db_vectors" style="edgeLabel;html=1;align=center;verticalAlign=middle;resizable=0;points=[];fontFamily=Roboto;fontSource=https%3A%2F%2Ffonts.googleapis.com%2Fcss%3Ffamily%3DRoboto;" parent="198" vertex="1" connectable="0">
                    <mxGeometry x="0.3454" y="-1" relative="1" as="geometry">
                        <mxPoint x="17.89" y="-14" as="offset"/>
                    </mxGeometry>
                </mxCell>
                <mxCell id="204" value="&lt;b&gt;is_db_vector_files_exist()&lt;/b&gt;?" style="strokeWidth=1;html=1;shape=mxgraph.flowchart.decision;whiteSpace=wrap;fontFamily=Roboto;fontSource=https%3A%2F%2Ffonts.googleapis.com%2Fcss%3Ffamily%3DRoboto;fillColor=#d5e8d4;strokeColor=#82b366;" parent="1" vertex="1">
                    <mxGeometry x="465.16" y="180" width="220" height="40" as="geometry"/>
                </mxCell>
                <mxCell id="207" value="" style="endArrow=classic;html=1;fontFamily=Roboto;fontSource=https%3A%2F%2Ffonts.googleapis.com%2Fcss%3Ffamily%3DRoboto;entryX=0.5;entryY=0;entryDx=0;entryDy=0;exitX=0.5;exitY=1;exitDx=0;exitDy=0;exitPerimeter=0;" parent="1" source="204" target="185" edge="1">
                    <mxGeometry width="50" height="50" relative="1" as="geometry">
                        <mxPoint x="590" y="230" as="sourcePoint"/>
                        <mxPoint x="771.9999999999999" y="325" as="targetPoint"/>
                    </mxGeometry>
                </mxCell>
                <mxCell id="208" value="True" style="edgeLabel;html=1;align=center;verticalAlign=middle;resizable=0;points=[];fontFamily=Roboto;fontSource=https%3A%2F%2Ffonts.googleapis.com%2Fcss%3Ffamily%3DRoboto;" parent="207" vertex="1" connectable="0">
                    <mxGeometry x="-0.2951" relative="1" as="geometry">
                        <mxPoint y="-18" as="offset"/>
                    </mxGeometry>
                </mxCell>
                <mxCell id="210" value="" style="endArrow=none;html=1;exitX=1;exitY=0.75;exitDx=0;exitDy=0;entryX=0.91;entryY=0;entryDx=0;entryDy=0;entryPerimeter=0;rounded=0;dashed=1;startArrow=classic;startFill=1;endFill=0;" parent="1" source="190" target="128" edge="1">
                    <mxGeometry width="50" height="50" relative="1" as="geometry">
                        <mxPoint x="390" y="590" as="sourcePoint"/>
                        <mxPoint x="480" y="400" as="targetPoint"/>
                        <Array as="points">
                            <mxPoint x="480" y="280"/>
                            <mxPoint x="480" y="400"/>
                        </Array>
                    </mxGeometry>
                </mxCell>
                <mxCell id="211" value="Read from memory" style="edgeLabel;html=1;align=center;verticalAlign=middle;resizable=0;points=[];rotation=270;" parent="210" vertex="1" connectable="0">
                    <mxGeometry x="0.4533" y="-2" relative="1" as="geometry">
                        <mxPoint x="12" y="-34.12" as="offset"/>
                    </mxGeometry>
                </mxCell>
            </root>
        </mxGraphModel>
    </diagram>
</mxfile>